<svg xmlns="http://www.w3.org/2000/svg" viewBox="0 0 1000 800">
    <!-- Definições de estilos -->
    <defs>
        <marker id="arrow" markerWidth="10" markerHeight="10" refX="9" refY="3" orient="auto" markerUnits="strokeWidth">
            <path d="M0,0 L0,6 L9,3 z" fill="black"/>
        </marker>
    </defs>

    <!-- Game Class -->
    <rect x="400" y="50" width="200" height="120" fill="white" stroke="black"/>
    <line x1="400" y1="80" x2="600" y2="80" stroke="black"/>
    <line x1="400" y1="100" x2="600" y2="100" stroke="black"/>
    <text x="500" y="70" text-anchor="middle" font-weight="bold">Game</text>
    <text x="410" y="95" font-size="12">- screen: Surface</text>
    <text x="410" y="115" font-size="12">- clock: Clock</text>
    <text x="410" y="135" font-size="12">+ run()</text>
    <text x="410" y="150" font-size="12">+ update(), draw(), events()</text>

    <!-- MoveTexto (Abstract) -->
    <rect x="400" y="250" width="200" height="120" fill="white" stroke="black" stroke-dasharray="5,5"/>
    <line x1="400" y1="280" x2="600" y2="280" stroke="black"/>
    <line x1="400" y1="320" x2="600" y2="320" stroke="black"/>
    <text x="500" y="270" text-anchor="middle" font-weight="bold" font-style="italic">MoveTexto</text>
    <text x="410" y="300" font-size="12"># font: Font</text>
    <text x="410" y="315" font-size="12"># color: tuple</text>
    <text x="410" y="340" font-size="12">+ draw(screen)</text>
    <text x="410" y="355" font-size="12">+ change_color(new_color)</text>

    <!-- TextoQuicante -->
    <rect x="200" y="450" width="180" height="100" fill="white" stroke="black"/>
    <line x1="200" y1="480" x2="380" y2="480" stroke="black"/>
    <line x1="200" y1="500" x2="380" y2="500" stroke="black"/>
    <text x="290" y="470" text-anchor="middle" font-weight="bold">TextoQuicante</text>
    <text x="210" y="495" font-size="12">- speed_x, speed_y</text>
    <text x="210" y="515" font-size="12">+ update()</text>
    <text x="210" y="530" font-size="12">- _on_colisao()</text>

    <!-- TextoVertical -->
    <rect x="400" y="450" width="180" height="100" fill="white" stroke="black"/>
    <line x1="400" y1="480" x2="580" y2="480" stroke="black"/>
    <line x1="400" y1="500" x2="580" y2="500" stroke="black"/>
    <text x="490" y="470" text-anchor="middle" font-weight="bold">TextoVertical</text>
    <text x="410" y="495" font-size="12">- speed_y</text>
    <text x="410" y="515" font-size="12">+ update()</text>
    <text x="410" y="530" font-size="12">- _on_colisao()</text>

    <!-- TextoHorizontal -->
    <rect x="600" y="450" width="180" height="100" fill="white" stroke="black"/>
    <line x1="600" y1="480" x2="780" y2="480" stroke="black"/>
    <line x1="600" y1="500" x2="780" y2="500" stroke="black"/>
    <text x="690" y="470" text-anchor="middle" font-weight="bold">TextoHorizontal</text>
    <text x="610" y="495" font-size="12">- speed_x</text>
    <text x="610" y="515" font-size="12">+ update()</text>
    <text x="610" y="530" font-size="12">- _on_colisao()</text>

    <!-- AudioManager -->
    <rect x="50" y="250" width="200" height="120" fill="white" stroke="black"/>
    <line x1="50" y1="280" x2="250" y2="280" stroke="black"/>
    <line x1="50" y1="320" x2="250" y2="320" stroke="black"/>
    <text x="150" y="270" text-anchor="middle" font-weight="bold">AudioManager</text>
    <text x="60" y="300" font-size="12">- musicas: list</text>
    <text x="60" y="315" font-size="12">- efeitos: dict</text>
    <text x="60" y="340" font-size="12">+ iniciar_musica()</text>
    <text x="60" y="355" font-size="12">+ tocar_efeito(nome)</text>

    <!-- GerenciadorFundo -->
    <rect x="700" y="250" width="200" height="120" fill="white" stroke="black"/>
    <line x1="700" y1="280" x2="900" y2="280" stroke="black"/>
    <line x1="700" y1="320" x2="900" y2="320" stroke="black"/>
    <text x="800" y="270" text-anchor="middle" font-weight="bold">GerenciadorFundo</text>
    <text x="710" y="300" font-size="12">- imagem_fundo: Surface</text>
    <text x="710" y="315" font-size="12">- cor_fundo: tuple</text>
    <text x="710" y="340" font-size="12">+ atualizar()</text>
    <text x="710" y="355" font-size="12">+ desenhar(screen)</text>

    <!-- Relacionamentos -->
    <!-- Game -> MoveTexto -->
    <line x1="500" y1="170" x2="500" y2="250" stroke="black" marker-end="url(#arrow)"/>

    <!-- Game -> AudioManager -->
    <line x1="400" y1="110" x2="150" y2="250" stroke="black" marker-end="url(#arrow)"/>

    <!-- Game -> GerenciadorFundo -->
    <line x1="600" y1="110" x2="800" y2="250" stroke="black" marker-end="url(#arrow)"/>

    <!-- Herança MoveTexto -> TextoQuicante -->
    <line x1="290" y1="450" x2="450" y2="370" stroke="black" marker-end="url(#arrow)"/>

    <!-- Herança MoveTexto -> TextoVertical -->
    <line x1="490" y1="450" x2="490" y2="370" stroke="black" marker-end="url(#arrow)"/>

    <!-- Herança MoveTexto -> TextoHorizontal -->
    <line x1="690" y1="450" x2="530" y2="370" stroke="black" marker-end="url(#arrow)"/>
</svg>